<?xml version="1.0" encoding="UTF-8" standalone="no"?>
<!-- Created with Inkscape (http://www.inkscape.org/) -->

<svg
   xmlns:dc="http://purl.org/dc/elements/1.1/"
   xmlns:cc="http://creativecommons.org/ns#"
   xmlns:rdf="http://www.w3.org/1999/02/22-rdf-syntax-ns#"
   xmlns:svg="http://www.w3.org/2000/svg"
   xmlns="http://www.w3.org/2000/svg"
   xmlns:xlink="http://www.w3.org/1999/xlink"
   xmlns:sodipodi="http://sodipodi.sourceforge.net/DTD/sodipodi-0.dtd"
   xmlns:inkscape="http://www.inkscape.org/namespaces/inkscape"
   width="1920mm"
   height="800mm"
   viewBox="0 0 1920 800"
   version="1.1"
   id="svg4834"
   inkscape:version="0.92.4 (5da689c313, 2019-01-14)"
   sodipodi:docname="banner.svg"
   inkscape:export-filename="/home/rohit/go/src/github.com/RohitAwate/OAuth2Bin/public/static/banner.png"
   inkscape:export-xdpi="25.4"
   inkscape:export-ydpi="25.4">
  <defs
     id="defs4828">
    <filter
       id="filter4802"
       inkscape:label="Drop Shadow"
       style="color-interpolation-filters:sRGB">
      <feFlood
         id="feFlood4792"
         result="flood"
         flood-color="rgb(40,40,40)"
         flood-opacity="1" />
      <feComposite
         id="feComposite4794"
         result="composite1"
         operator="in"
         in2="SourceGraphic"
         in="flood" />
      <feGaussianBlur
         id="feGaussianBlur4796"
         result="blur"
         stdDeviation="2"
         in="composite1" />
      <feOffset
         id="feOffset4798"
         result="offset"
         dy="1"
         dx="1" />
      <feComposite
         id="feComposite4800"
         result="composite2"
         operator="over"
         in2="offset"
         in="SourceGraphic" />
    </filter>
    <linearGradient
       id="linearGradient4816"
       inkscape:collect="always">
      <stop
         id="stop4812"
         offset="0"
         style="stop-color:#0b738c;stop-opacity:1" />
      <stop
         id="stop4814"
         offset="1"
         style="stop-color:#ffffff;stop-opacity:1" />
    </linearGradient>
    <linearGradient
       id="linearGradient4808"
       inkscape:collect="always">
      <stop
         id="stop4804"
         offset="0"
         style="stop-color:#1f424b;stop-opacity:0.99607843" />
      <stop
         id="stop4806"
         offset="1"
         style="stop-color:#7bc1d3;stop-opacity:0.99607843" />
    </linearGradient>
    <linearGradient
       id="linearGradient4641"
       inkscape:collect="always">
      <stop
         id="stop4637"
         offset="0"
         style="stop-color:#0575e6;stop-opacity:1" />
      <stop
         id="stop4639"
         offset="1"
         style="stop-color:#021b79;stop-opacity:1" />
    </linearGradient>
    <linearGradient
       gradientUnits="userSpaceOnUse"
       y2="250.13097"
       x2="257.77975"
       y1="-248.79761"
       x1="263.82739"
       id="linearGradient4643"
       xlink:href="#linearGradient4641"
       inkscape:collect="always" />
    <filter
       id="filter4802-5"
       inkscape:label="Drop Shadow"
       style="color-interpolation-filters:sRGB;">
      <feFlood
         id="feFlood4792-3"
         result="flood"
         flood-color="rgb(40,40,40)"
         flood-opacity="1" />
      <feComposite
         id="feComposite4794-5"
         result="composite1"
         operator="in"
         in2="SourceGraphic"
         in="flood" />
      <feGaussianBlur
         id="feGaussianBlur4796-6"
         result="blur"
         stdDeviation="2"
         in="composite1" />
      <feOffset
         id="feOffset4798-2"
         result="offset"
         dy="1"
         dx="1" />
      <feComposite
         id="feComposite4800-9"
         result="composite2"
         operator="over"
         in2="offset"
         in="SourceGraphic" />
    </filter>
    <linearGradient
       gradientUnits="userSpaceOnUse"
       y2="-257.49106"
       x2="261.66965"
       y1="-66.991043"
       x1="260.9137"
       id="linearGradient4810"
       xlink:href="#linearGradient4808"
       inkscape:collect="always" />
    <linearGradient
       gradientUnits="userSpaceOnUse"
       y2="-232.92259"
       x2="258.79178"
       y1="-154.30354"
       x1="259.25583"
       id="linearGradient4818"
       xlink:href="#linearGradient4816"
       inkscape:collect="always" />
  </defs>
  <sodipodi:namedview
     id="base"
     pagecolor="#ffffff"
     bordercolor="#666666"
     borderopacity="1.0"
     inkscape:pageopacity="0.0"
     inkscape:pageshadow="2"
     inkscape:zoom="0.175"
     inkscape:cx="3516.8015"
     inkscape:cy="1690.8237"
     inkscape:document-units="mm"
     inkscape:current-layer="layer1"
     showgrid="false"
     inkscape:window-width="1920"
     inkscape:window-height="1001"
     inkscape:window-x="-9"
     inkscape:window-y="-9"
     inkscape:window-maximized="1" />
  <metadata
     id="metadata4831">
    <rdf:RDF>
      <cc:Work
         rdf:about="">
        <dc:format>image/svg+xml</dc:format>
        <dc:type
           rdf:resource="http://purl.org/dc/dcmitype/StillImage" />
        <dc:title />
      </cc:Work>
    </rdf:RDF>
  </metadata>
  <g
     inkscape:label="Layer 1"
     inkscape:groupmode="layer"
     id="layer1"
     transform="translate(0,503)">
    <g
       transform="matrix(1.1871085,0,0,1.1439327,-1.3232768,-136.77667)"
       id="layer1-2"
       inkscape:label="Layer 1">
      <text
         inkscape:export-ydpi="70.239998"
         inkscape:export-xdpi="70.239998"
         id="text817"
         y="259.465"
         x="12.846973"
         style="font-style:normal;font-weight:normal;font-size:10.58333302px;line-height:1.25;font-family:sans-serif;letter-spacing:0px;word-spacing:0px;fill:#000000;fill-opacity:1;stroke:none;stroke-width:0.26458332"
         xml:space="preserve"><tspan
           id="tspan819"
           style="font-style:normal;font-variant:normal;font-weight:bold;font-stretch:normal;font-size:105.83333588px;font-family:Overpass;-inkscape-font-specification:'Overpass Bold';stroke-width:0.26458332"
           y="268.82877"
           x="12.846973"
           sodipodi:role="line" /></text>
      <rect
         ry="50"
         rx="50"
         y="-118.50595"
         x="97.25"
         height="367.39285"
         width="317.5"
         id="rect909"
         style="fill:url(#linearGradient4643);fill-opacity:1;stroke-width:0.26458332" />
      <rect
         ry="10"
         rx="10"
         y="-143.72021"
         x="55.294647"
         height="76.351196"
         width="401.41071"
         id="rect913"
         style="fill:url(#linearGradient4810);fill-opacity:1;stroke-width:0.26458332" />
      <rect
         style="fill:url(#linearGradient4818);fill-opacity:1;stroke-width:0.13622113"
         id="rect917"
         width="206.66692"
         height="39.309528"
         x="152.66653"
         y="-189.83331"
         rx="5.1485152"
         ry="5.1485152" />
      <text
         id="text921"
         y="21.833345"
         x="201.08333"
         style="font-style:normal;font-weight:normal;font-size:10.58333302px;line-height:1.25;font-family:sans-serif;letter-spacing:0px;word-spacing:0px;fill:#000000;fill-opacity:1;stroke:none;stroke-width:0.26458332"
         xml:space="preserve"><tspan
           style="stroke-width:0.26458332"
           y="31.197115"
           x="201.08333"
           id="tspan919"
           sodipodi:role="line" /></text>
      <g
         aria-label="OA
2B"
         style="font-style:normal;font-weight:normal;font-size:10.58333302px;line-height:1.25;font-family:sans-serif;letter-spacing:0px;word-spacing:0px;fill:#000000;fill-opacity:1;stroke:none;stroke-width:0.26458332;filter:url(#filter4802-5)"
         id="text925">
        <path
           d="m 199.97585,81.271433 c 33.16111,0 46.91944,-30.691666 46.91944,-63.852776 0,-33.161111 -13.75833,-63.852777 -46.91944,-63.852777 -33.16111,0 -46.74306,30.691666 -46.74306,63.852777 0,33.16111 13.58195,63.852776 46.74306,63.852776 z m 0,-19.931944 c -17.63889,0 -25.04722,-20.6375 -25.04722,-43.920832 0,-22.2250001 7.40833,-43.920833 25.04722,-43.920833 17.63889,0 25.04722,20.4611107 25.04722,43.920833 0,22.04861 -7.58472,43.920832 -25.04722,43.920832 z"
           style="font-style:normal;font-variant:normal;font-weight:bold;font-stretch:normal;font-size:176.3888855px;font-family:'Overpass Mono';-inkscape-font-specification:'Overpass Mono Bold';fill:#e6e6e6;stroke-width:0.26458332"
           id="path860" />
        <path
           d="m 336.18941,79.154766 h 22.57778 L 318.37413,-44.317453 H 298.61858 L 258.22552,79.154766 h 22.57778 l 8.11389,-27.163888 h 39.15833 z M 294.56163,32.940878 305.49774,-3.7480097 c 0.88195,-2.8222222 2.11667,-9.1722223 2.99862,-13.7583333 0.70555,4.586111 2.11666,10.9361111 2.99861,13.7583333 l 10.93611,36.6888877 z"
           style="font-style:normal;font-variant:normal;font-weight:bold;font-stretch:normal;font-size:176.3888855px;font-family:'Overpass Mono';-inkscape-font-specification:'Overpass Mono Bold';fill:#e6e6e6;stroke-width:0.26458332"
           id="path862" />
        <path
           d="m 158.52446,219.64087 h 82.72639 v -20.10833 h -58.20833 c 2.64583,-11.1125 12.69999,-19.57917 25.22361,-27.16389 17.99166,-10.40694 31.92638,-19.75555 31.92638,-42.33333 0,-20.46111 -14.46388,-35.983333 -39.15833,-35.983333 -19.05,0 -34.74861,10.759723 -40.92222,26.634723 l 18.69722,8.46667 c 3.70417,-9.34862 11.1125,-15.34584 22.57778,-15.34584 10.75972,0 17.63889,6.52639 17.63889,16.75695 0,11.1125 -9.525,17.81527 -19.75556,23.98888 -21.69583,12.52362 -40.74583,29.63334 -40.74583,65.0875 z"
           style="font-style:normal;font-variant:normal;font-weight:bold;font-stretch:normal;font-size:176.3888855px;font-family:'Overpass Mono';-inkscape-font-specification:'Overpass Mono Bold';fill:#e6e6e6;stroke-width:0.26458332"
           id="path864" />
        <path
           d="m 267.57413,219.64087 h 44.27361 c 30.69167,0 41.09861,-18.87361 41.09861,-36.15972 0,-12.34722 -6.52638,-24.34166 -20.28472,-28.92778 10.93611,-4.93888 16.05139,-14.46388 16.05139,-25.39999 0,-16.58056 -9.525,-32.984727 -39.51111,-32.984727 h -41.62778 z m 20.99028,-73.55416 v -30.51528 h 21.16667 c 14.99305,0 17.99166,7.76111 17.99166,14.99306 0,9.34861 -6.87916,15.52222 -21.34305,15.52222 z m 0,54.15139 v -34.925 h 19.57917 c 19.40278,0 23.8125,9.17222 23.8125,18.34444 0,7.76111 -4.05695,16.58056 -18.69722,16.58056 z"
           style="font-style:normal;font-variant:normal;font-weight:bold;font-stretch:normal;font-size:176.3888855px;font-family:'Overpass Mono';-inkscape-font-specification:'Overpass Mono Bold';fill:#e6e6e6;stroke-width:0.26458332"
           id="path866" />
      </g>
      <flowRoot
         style="font-style:normal;font-weight:normal;font-size:40px;line-height:1.25;font-family:sans-serif;letter-spacing:0px;word-spacing:0px;fill:#000000;fill-opacity:1;stroke:none"
         id="flowRoot4820"
         xml:space="preserve"><flowRegion
           id="flowRegion4822"><rect
             y="69.403877"
             x="197.14285"
             height="1745.7142"
             width="1611.4286"
             id="rect4824" /></flowRegion><flowPara
           id="flowPara4826" /></flowRoot>    </g>
    <text
       xml:space="preserve"
       style="font-style:normal;font-weight:normal;font-size:10.58333302px;line-height:1.25;font-family:sans-serif;letter-spacing:0px;word-spacing:0px;fill:#000000;fill-opacity:1;stroke:none;stroke-width:0.26458332"
       x="827.0119"
       y="-93.071411"
       id="text5652"><tspan
         sodipodi:role="line"
         id="tspan5650"
         x="827.0119"
         y="-83.707642"
         style="stroke-width:0.26458332" /></text>
    <g
       aria-label="OAuth2.0Bin"
       style="font-style:normal;font-weight:normal;font-size:10.58333302px;line-height:1.25;font-family:sans-serif;letter-spacing:0px;word-spacing:0px;fill:#000000;fill-opacity:1;stroke:none;stroke-width:0.26458332"
       id="text5656">
      <path
         d="m 701.22761,-169.39649 q 10.18887,11.19656 15.56322,27.43157 5.48632,16.23501 5.48632,36.83669 0,20.601667 -5.59828,36.948645 -5.48632,16.235013 -15.45126,27.095676 -10.30083,11.308526 -24.4085,17.018772 -13.9957,5.710246 -32.02216,5.710246 -17.5786,0 -32.02216,-5.822211 -14.3316,-5.822212 -24.4085,-16.906807 -10.07691,-11.084594 -15.56322,-27.207641 -5.37435,-16.123047 -5.37435,-36.83668 0,-20.37774 5.37435,-36.50079 5.37435,-16.23501 15.67518,-27.76747 9.85297,-10.97263 24.4085,-16.79484 14.6675,-5.82221 31.9102,-5.82221 17.9145,0 32.13413,5.93417 14.3316,5.82222 24.29653,16.68288 z m -2.01538,64.26826 q 0,-32.47003 -14.55552,-50.04863 -14.55553,-17.69056 -39.74779,-17.69056 -25.4162,0 -39.97172,17.69056 -14.44357,17.5786 -14.44357,50.04863 0,32.805918 14.77946,50.272552 14.77946,17.354669 39.63583,17.354669 24.85636,0 39.52385,-17.354669 14.77946,-17.466634 14.77946,-50.272552 z"
         style="font-size:229.30555725px;fill:#00aad4"
         id="path869" />
      <path
         d="M 888.88197,-21.825825 H 865.25723 L 848.91025,-68.29155 H 776.8044 l -16.34698,46.465725 h -22.50509 l 60.68536,-166.716785 h 29.55892 z m -46.80162,-65.499878 -29.22303,-81.846857 -29.33498,81.846857 z"
         style="font-size:229.30555725px;fill:#00aad4"
         id="path871" />
      <path
         d="M 1015.2911,-21.825825 H 994.24159 V -35.70956 q -10.63673,8.397421 -20.37774,12.876045 -9.74101,4.478624 -21.49739,4.478624 -19.70595,0 -30.67858,-11.98032 -10.97263,-12.092285 -10.97263,-35.381131 V -146.8914 h 21.04953 v 71.21012 q 0,9.517076 0.89573,16.346978 0.89572,6.717936 3.80683,11.532457 3.02307,4.926487 7.83759,7.165799 4.81452,2.239312 13.9957,2.239312 8.17349,0 17.80253,-4.254693 9.74101,-4.254693 18.13843,-10.860664 V -146.8914 h 21.04951 z"
         style="font-size:229.30555725px;fill:#00aad4"
         id="path873" />
      <path
         d="m 1121.6584,-22.945481 q -5.9341,1.567519 -12.988,2.575209 -6.9418,1.007691 -12.4281,1.007691 -19.1462,0 -29.1111,-10.300836 -9.9649,-10.300836 -9.9649,-33.029853 v -66.50757 h -14.2197 v -17.69056 h 14.2197 v -35.94096 h 21.0495 v 35.94096 h 43.4426 v 17.69056 h -43.4426 v 56.990493 q 0,9.852974 0.4479,15.451254 0.4478,5.486314 3.135,10.300835 2.4632,4.478625 6.7179,6.605971 4.3667,2.015381 13.212,2.015381 5.1504,0 10.7487,-1.455553 5.5982,-1.567518 8.0615,-2.575209 h 1.1196 z"
         style="font-size:229.30555725px;fill:#00aad4"
         id="path875" />
      <path
         d="m 1251.7625,-21.825825 h -21.0496 v -71.210124 q 0,-8.621351 -1.0077,-16.123051 -1.0076,-7.61366 -3.6948,-11.86835 -2.7992,-4.70256 -8.0615,-6.94187 -5.2624,-2.35128 -13.6598,-2.35128 -8.6214,0 -18.0265,4.2547 -9.4051,4.25469 -18.0265,10.86066 v 93.379315 h -21.0495 V -196.0443 h 21.0495 v 63.03663 q 9.853,-8.17349 20.3778,-12.76408 10.5247,-4.59059 21.6093,-4.59059 20.2658,0 30.9025,12.20425 10.6368,12.20425 10.6368,35.1572 z"
         style="font-size:229.30555725px;fill:#00aad4"
         id="path877" />
      <path
         d="m 1402.4682,-21.825825 h -112.8614 v -23.400811 q 11.7564,-10.076904 23.5128,-20.153809 11.8684,-10.076904 22.0572,-20.041843 21.4974,-20.825602 29.447,-33.029852 7.9496,-12.31622 7.9496,-26.53585 0,-12.98801 -8.6214,-20.26577 -8.5094,-7.38973 -23.8487,-7.38973 -10.1888,0 -22.0572,3.5829 -11.8683,3.5829 -23.1769,10.97263 h -1.1196 v -23.51278 q 7.9495,-3.9188 21.1615,-7.1658 13.3239,-3.247 25.7521,-3.247 25.6401,0 40.1956,12.42818 14.5555,12.31622 14.5555,33.47771 0,9.51708 -2.4632,17.80254 -2.3513,8.17348 -7.0538,15.56321 -4.3667,6.94187 -10.3009,13.659808 -5.8222,6.717937 -14.2196,14.891426 -11.9803,11.756388 -24.7444,22.840983 -12.7641,10.972629 -23.8487,20.37774 h 89.6845 z"
         style="font-size:229.30555725px;fill:#006680"
         id="path879" />
      <path
         d="m 1472.6706,-21.825825 h -26.7597 v -31.910197 h 26.7597 z"
         style="font-size:229.30555725px;fill:#006680"
         id="path881" />
      <path
         d="m 1631.5498,-105.2402 q 0,44.898207 -14.1077,65.947741 -13.9957,20.937568 -43.5546,20.937568 -30.0068,0 -43.8905,-21.273465 -13.7718,-21.273465 -13.7718,-65.387914 0,-44.45034 13.9957,-65.61184 13.9957,-21.27347 43.6666,-21.27347 30.0068,0 43.7786,21.60936 13.8837,21.4974 13.8837,65.05202 z m -29.447,50.832384 q 3.9188,-9.069213 5.2624,-21.273464 1.4556,-12.316217 1.4556,-29.55892 0,-17.01877 -1.4556,-29.55892 -1.3436,-12.54015 -5.3743,-21.27346 -3.9188,-8.62136 -10.7487,-12.98801 -6.718,-4.36666 -17.3547,-4.36666 -10.5248,0 -17.4666,4.36666 -6.8299,4.36665 -10.8607,13.21194 -3.8068,8.28545 -5.2624,21.60936 -1.3436,13.32391 -1.3436,29.22302 0,17.466636 1.2317,29.223024 1.2316,11.756389 5.2623,21.049534 3.6949,8.733317 10.4128,13.323907 6.8299,4.590589 18.0265,4.590589 10.5248,0 17.4666,-4.366658 6.9419,-4.366659 10.7487,-13.211942 z"
         style="font-size:229.30555725px;fill:#006680"
         id="path883" />
      <path
         d="m 1795.0196,-73.106071 q 0,12.428182 -4.7026,21.945258 -4.7025,9.517076 -12.6521,15.675185 -9.4051,7.389729 -20.7136,10.524766 -11.1966,3.135037 -28.5512,3.135037 h -59.1179 V -188.54261 h 49.3769 q 18.2503,0 27.3196,1.34359 9.0692,1.34359 17.3546,5.59828 9.1812,4.81452 13.3239,12.42818 4.1428,7.5017 4.1428,18.02646 0,11.86836 -6.0462,20.26578 -6.0461,8.28545 -16.123,13.3239 v 0.89573 q 16.9068,3.47093 26.6478,14.89142 9.741,11.30853 9.741,28.663199 z m -37.2846,-75.128919 q 0,-6.04614 -2.0153,-10.18887 -2.0154,-4.14273 -6.494,-6.71794 -5.2624,-3.02307 -12.7641,-3.69486 -7.5017,-0.78376 -18.5863,-0.78376 h -26.4239 v 48.14521 h 28.6632 q 10.4128,0 16.5709,-1.00769 6.1581,-1.11966 11.4205,-4.47863 5.2624,-3.35897 7.3897,-8.62135 2.2393,-5.37435 2.2393,-12.65211 z m 14.2197,76.024643 q 0,-10.076904 -3.0231,-16.011081 -3.0231,-5.934177 -10.9726,-10.076904 -5.3744,-2.799138 -13.1,-3.582898 -7.6137,-0.89573 -18.5863,-0.89573 h -34.8213 v 62.028948 h 29.335 q 14.5555,0 23.8487,-1.455553 9.2931,-1.567518 15.2273,-5.59828 6.2701,-4.366658 9.1812,-9.964939 2.9111,-5.59828 2.9111,-14.443563 z"
         style="font-style:normal;font-variant:normal;font-weight:300;font-stretch:normal;font-size:229.30555725px;font-family:Overpass;-inkscape-font-specification:'Overpass Light';stroke-width:0.26458332"
         id="path885" />
      <path
         d="m 1847.4195,-167.82897 h -23.7367 v -21.8333 h 23.7367 z m -1.3436,146.003145 h -21.0495 V -146.8914 h 21.0495 z"
         style="font-style:normal;font-variant:normal;font-weight:300;font-stretch:normal;font-size:229.30555725px;font-family:Overpass;-inkscape-font-specification:'Overpass Light';stroke-width:0.26458332"
         id="path887" />
      <path
         d="m 1992.5269,-21.825825 h -21.0496 v -71.210124 q 0,-8.621351 -1.0076,-16.123051 -1.0077,-7.61366 -3.6949,-11.86835 -2.7992,-4.70256 -8.0615,-6.94187 -5.2624,-2.35128 -13.6598,-2.35128 -8.6214,0 -18.0265,4.2547 -9.4051,4.25469 -18.0265,10.86066 v 93.379315 H 1887.951 V -146.8914 h 21.0495 v 13.88373 q 9.853,-8.17349 20.3778,-12.76408 10.5247,-4.59059 21.6093,-4.59059 20.2658,0 30.9025,12.20425 10.6368,12.20425 10.6368,35.1572 z"
         style="font-style:normal;font-variant:normal;font-weight:300;font-stretch:normal;font-size:229.30555725px;font-family:Overpass;-inkscape-font-specification:'Overpass Light';stroke-width:0.26458332"
         id="path889" />
    </g>
  </g>
</svg>
